<svg width="54" height="43" viewBox="0 0 54 43" fill="none" xmlns="http://www.w3.org/2000/svg">
<mask id="path-1-outside-1_1381_284" maskUnits="userSpaceOnUse" x="0" y="-0.737305" width="54" height="43" fill="black">
<rect fill="white" y="-0.737305" width="54" height="43"/>
<path d="M18.9389 40.0641C19.2889 39.7658 19.3322 39.2402 19.0339 38.8897L4.63611 21.9647L51.1667 21.9647C51.6272 21.9647 52 21.5919 52 21.1313C52 20.6708 51.6272 20.298 51.1667 20.298L4.63611 20.298L19.0339 3.37302C19.3317 3.02302 19.29 2.4969 18.9389 2.19857C18.5883 1.90023 18.0628 1.94302 17.7644 2.29302L2.19833 20.5919C2.19055 20.6008 2.18777 20.613 2.18055 20.6219C2.14166 20.6719 2.10389 20.723 2.07666 20.7819C2.07 20.7963 2.06778 20.8113 2.06222 20.8258C2.055 20.8436 2.05 20.8608 2.04444 20.8786C2.01778 20.9613 2 21.0463 2 21.1313C2 21.2163 2.01778 21.3013 2.04444 21.3841C2.05 21.4019 2.055 21.4191 2.06222 21.4363C2.06778 21.4508 2.07055 21.4658 2.07722 21.4802C2.10444 21.5391 2.14222 21.5902 2.18111 21.6402C2.18833 21.6497 2.19111 21.6613 2.19889 21.6702L17.7644 39.9691C18.0628 40.3197 18.5883 40.3625 18.9389 40.0641Z"/>
</mask>
<path d="M18.9389 40.0641C19.2889 39.7658 19.3322 39.2402 19.0339 38.8897L4.63611 21.9647L51.1667 21.9647C51.6272 21.9647 52 21.5919 52 21.1313C52 20.6708 51.6272 20.298 51.1667 20.298L4.63611 20.298L19.0339 3.37302C19.3317 3.02302 19.29 2.4969 18.9389 2.19857C18.5883 1.90023 18.0628 1.94302 17.7644 2.29302L2.19833 20.5919C2.19055 20.6008 2.18777 20.613 2.18055 20.6219C2.14166 20.6719 2.10389 20.723 2.07666 20.7819C2.07 20.7963 2.06778 20.8113 2.06222 20.8258C2.055 20.8436 2.05 20.8608 2.04444 20.8786C2.01778 20.9613 2 21.0463 2 21.1313C2 21.2163 2.01778 21.3013 2.04444 21.3841C2.05 21.4019 2.055 21.4191 2.06222 21.4363C2.06778 21.4508 2.07055 21.4658 2.07722 21.4802C2.10444 21.5391 2.14222 21.5902 2.18111 21.6402C2.18833 21.6497 2.19111 21.6613 2.19889 21.6702L17.7644 39.9691C18.0628 40.3197 18.5883 40.3625 18.9389 40.0641Z" fill="#23A6F0"/>
<path d="M18.9389 40.0641L20.2351 41.5872L20.2363 41.5862L18.9389 40.0641ZM19.0339 38.8897L17.5105 40.1856L17.5108 40.1859L19.0339 38.8897ZM4.63611 21.9647V19.9647H0.308987L3.11274 23.2606L4.63611 21.9647ZM4.63611 20.298L3.11274 19.0021L0.308983 22.298H4.63611V20.298ZM19.0339 3.37302L17.5106 2.07702L17.5105 2.07712L19.0339 3.37302ZM18.9389 2.19857L17.6427 3.72167L17.6439 3.72268L18.9389 2.19857ZM17.7644 2.29301L16.2424 0.995617L16.2411 0.997135L17.7644 2.29301ZM2.19833 20.5919L3.70349 21.9089L3.71267 21.8984L3.72171 21.8878L2.19833 20.5919ZM2.18055 20.6219L0.628323 19.3607L0.614906 19.3772L0.601849 19.394L2.18055 20.6219ZM2.07666 20.7819L0.261246 19.9427L0.260746 19.9438L2.07666 20.7819ZM2.06222 20.8258L3.91515 21.5785L3.9222 21.5612L3.92891 21.5437L2.06222 20.8258ZM2.04444 20.8786L3.9481 21.4918L3.95079 21.4835L3.9534 21.4751L2.04444 20.8786ZM2.04444 21.3841L3.9534 20.7876L3.95079 20.7792L3.9481 20.7709L2.04444 21.3841ZM2.06222 21.4363L3.92891 20.7184L3.91817 20.6905L3.90661 20.6629L2.06222 21.4363ZM2.07722 21.4802L0.261299 22.3183L0.261803 22.3194L2.07722 21.4802ZM2.18111 21.6402L3.76982 20.4253L3.76484 20.4188L3.75981 20.4124L2.18111 21.6402ZM2.19889 21.6702L3.72229 20.3744L3.71324 20.3637L3.70404 20.3532L2.19889 21.6702ZM17.7644 39.9691L16.241 41.265L16.2413 41.2653L17.7644 39.9691ZM20.2363 41.5862C21.4228 40.5749 21.5739 38.7884 20.557 37.5935L17.5108 40.1859C17.0905 39.6921 17.155 38.9567 17.6415 38.542L20.2363 41.5862ZM20.5573 37.5938L6.15948 20.6688L3.11274 23.2606L17.5105 40.1856L20.5573 37.5938ZM4.63611 23.9647L51.1667 23.9647V19.9647L4.63611 19.9647V23.9647ZM51.1667 23.9647C52.7318 23.9647 54 22.6965 54 21.1313H50C50 20.4873 50.5227 19.9647 51.1667 19.9647V23.9647ZM54 21.1313C54 19.5662 52.7318 18.298 51.1667 18.298V22.298C50.5227 22.298 50 21.7754 50 21.1313H54ZM51.1667 18.298L4.63611 18.298V22.298L51.1667 22.298V18.298ZM6.15948 21.5939L20.5573 4.66891L17.5105 2.07712L3.11274 19.0021L6.15948 21.5939ZM20.5572 4.66901C21.5696 3.479 21.4288 1.68973 20.2339 0.67445L17.6439 3.72268C17.1512 3.30407 17.0937 2.56704 17.5106 2.07702L20.5572 4.66901ZM20.2351 0.675465C19.042 -0.339897 17.2553 -0.19273 16.2424 0.995617L19.2865 3.59042C18.8703 4.07876 18.1347 4.14037 17.6427 3.72167L20.2351 0.675465ZM16.2411 0.997135L0.67495 19.296L3.72171 21.8878L19.2878 3.58889L16.2411 0.997135ZM0.69318 19.2749C0.581497 19.4025 0.506996 19.52 0.462376 19.5971C0.439819 19.6361 0.422543 19.6689 0.411385 19.6907C0.400719 19.7115 0.392475 19.7285 0.391106 19.7313C0.387184 19.7393 0.392845 19.7276 0.397938 19.7174C0.40432 19.7047 0.416889 19.6798 0.433937 19.6489C0.467125 19.5887 0.530205 19.4815 0.628323 19.3607L3.73278 21.8831C3.78447 21.8195 3.82628 21.7601 3.85936 21.7093C3.89227 21.6588 3.91798 21.6143 3.93663 21.5805C3.95507 21.5471 3.96898 21.5197 3.97666 21.5043C3.98062 21.4963 3.98376 21.4899 3.9854 21.4866C3.98624 21.4848 3.98693 21.4834 3.98721 21.4828C3.98771 21.4818 3.98742 21.4824 3.98736 21.4825C3.98707 21.4831 3.98518 21.487 3.98265 21.4921C3.98002 21.4974 3.97602 21.5055 3.971 21.5152C3.96118 21.5344 3.94529 21.5646 3.9242 21.6011C3.90295 21.6378 3.87459 21.684 3.83863 21.7358C3.80251 21.7878 3.75785 21.8468 3.70349 21.9089L0.69318 19.2749ZM0.601849 19.394C0.555931 19.4531 0.392349 19.6591 0.261246 19.9427L3.89208 21.6211C3.85054 21.711 3.80944 21.7765 3.78497 21.813C3.76255 21.8464 3.74691 21.8657 3.75925 21.8498L0.601849 19.394ZM0.260746 19.9438C0.22176 20.0283 0.194759 20.1016 0.176815 20.155C0.159657 20.206 0.147976 20.2473 0.144615 20.2592C0.143639 20.2626 0.142803 20.2656 0.142548 20.2665C0.142109 20.2681 0.142361 20.2672 0.142639 20.2662C0.14323 20.2641 0.145828 20.2549 0.149483 20.2427C0.156681 20.2186 0.171898 20.1693 0.19553 20.1078L3.92891 21.5437C3.95532 21.4751 3.9729 21.4185 3.98228 21.3871C3.98703 21.3712 3.99068 21.3583 3.99231 21.3525C3.99311 21.3497 3.99387 21.3469 3.99395 21.3467C3.99421 21.3457 3.99389 21.3469 3.99343 21.3485C3.99216 21.353 3.98263 21.387 3.96794 21.4307C3.95246 21.4767 3.92823 21.5428 3.89258 21.62L0.260746 19.9438ZM0.209286 20.073C0.181671 20.141 0.162338 20.198 0.150848 20.2334C0.145203 20.2507 0.140675 20.2653 0.138374 20.2727C0.137321 20.2761 0.136047 20.2802 0.135777 20.2811C0.135239 20.2828 0.135262 20.2827 0.135483 20.282L3.9534 21.4751C3.95501 21.47 3.95641 21.4655 3.95723 21.4628C3.95833 21.4592 3.95841 21.459 3.95872 21.458C3.95915 21.4566 3.95736 21.4624 3.95457 21.471C3.94877 21.4888 3.93555 21.5283 3.91515 21.5785L0.209286 20.073ZM0.140785 20.2653C0.0739174 20.4729 -3.8147e-06 20.773 -3.8147e-06 21.1313H4C4 21.3197 3.96164 21.4498 3.9481 21.4918L0.140785 20.2653ZM-3.8147e-06 21.1313C-3.8147e-06 21.4897 0.0739174 21.7898 0.140785 21.9974L3.9481 20.7709C3.96164 20.8129 4 20.943 4 21.1313H-3.8147e-06ZM0.135483 21.9807C0.135277 21.98 0.135254 21.9799 0.135857 21.9819C0.136227 21.9831 0.137501 21.9872 0.138706 21.9911C0.141216 21.9992 0.146126 22.0149 0.152306 22.0337C0.16473 22.0716 0.186317 22.1346 0.217831 22.2098L3.90661 20.6629C3.9309 20.7208 3.94638 20.7666 3.95311 20.7872C3.95487 20.7925 3.95623 20.7968 3.95708 20.7995C3.95751 20.8008 3.95785 20.8019 3.95806 20.8026C3.95817 20.8029 3.95825 20.8032 3.95831 20.8034C3.95836 20.8035 3.95839 20.8036 3.95839 20.8036C3.95839 20.8036 3.95837 20.8036 3.95832 20.8034C3.95827 20.8032 3.95819 20.803 3.95809 20.8027C3.95779 20.8017 3.95766 20.8013 3.95715 20.7996C3.95639 20.7972 3.955 20.7927 3.9534 20.7876L0.135483 21.9807ZM0.19553 22.1543C0.175903 22.1033 0.162941 22.0628 0.157177 22.0444C0.15424 22.035 0.152157 22.028 0.151943 22.0273C0.150333 22.0219 0.153648 22.033 0.154655 22.0363C0.15836 22.0486 0.169544 22.0856 0.185555 22.1312C0.202194 22.1787 0.22678 22.2436 0.261299 22.3183L3.89314 20.6421C3.92433 20.7097 3.94607 20.7673 3.96014 20.8074C3.97358 20.8457 3.98247 20.8753 3.98395 20.8803C3.98445 20.8819 3.98478 20.883 3.98463 20.8825C3.98433 20.8815 3.9847 20.8828 3.98424 20.8812C3.98404 20.8805 3.98372 20.8795 3.98336 20.8783C3.98204 20.8739 3.97884 20.8632 3.97476 20.8502C3.96671 20.8244 3.95131 20.7766 3.92891 20.7184L0.19553 22.1543ZM0.261803 22.3194C0.392899 22.603 0.556465 22.8091 0.602402 22.8681L3.75981 20.4124C3.74747 20.3965 3.76311 20.4157 3.78554 20.4492C3.81 20.4856 3.8511 20.5512 3.89264 20.641L0.261803 22.3194ZM0.592392 22.8551C0.512188 22.7503 0.459152 22.6587 0.430347 22.6059C0.41581 22.5793 0.405075 22.5581 0.399986 22.5479C0.396881 22.5417 0.390881 22.5296 0.396271 22.5405C0.398582 22.5452 0.407207 22.5627 0.418533 22.5844C0.430271 22.6069 0.447823 22.6396 0.470512 22.6781C0.515873 22.7551 0.588116 22.8665 0.693733 22.9872L3.70404 20.3532C3.80577 20.4695 3.87475 20.5761 3.91717 20.6482C3.9384 20.6842 3.95456 20.7143 3.96496 20.7343C3.97495 20.7534 3.98228 20.7683 3.98331 20.7704C3.98368 20.7712 3.98396 20.7717 3.9838 20.7714C3.98379 20.7714 3.98325 20.7703 3.98271 20.7692C3.98159 20.7669 3.979 20.7617 3.97573 20.7551C3.96933 20.7424 3.95726 20.7186 3.94133 20.6894C3.90973 20.6315 3.85364 20.5349 3.76982 20.4253L0.592392 22.8551ZM0.67548 22.9661L16.241 41.265L19.2878 38.6733L3.72229 20.3744L0.67548 22.9661ZM16.2413 41.2653C17.2542 42.4555 19.0417 42.6028 20.2351 41.5872L17.6427 38.541C18.1349 38.1221 18.8714 38.1839 19.2875 38.6729L16.2413 41.2653Z" fill="#23A6F0" mask="url(#path-1-outside-1_1381_284)"/>
</svg>
